<svg xmlns="http://www.w3.org/2000/svg" fill="none" viewBox="0 0 96 96" id="Solidjs-Icon--Streamline-Svg-Logos" height="24" width="24">
  <desc>
    Solidjs Icon Streamline Icon: https://streamlinehq.com
  </desc>
  <path fill="#76b3e1" d="M95.0004 22.7983S63.6672-.257799 39.4277 5.06275l-1.7731.59117c-3.5471 1.18271-6.5033 2.95586-8.2772 5.32088l-1.1819 1.7732-8.8684 15.3712 15.3716 2.9562c6.5029 4.1382 14.7797 5.9121 22.4653 4.1382l27.195 5.3209 10.6414-17.7362Z"></path>
  <path fill="url(#a)" d="M95.0004 22.7983S63.6672-.257799 39.4277 5.06275l-1.7731.59117c-3.5471 1.18271-6.5033 2.95586-8.2772 5.32088l-1.1819 1.7732-8.8684 15.3712 15.3716 2.9562c6.5029 4.1382 14.7797 5.9121 22.4653 4.1382l27.195 5.3209 10.6414-17.7362Z" opacity=".3"></path>
  <path fill="#518ac8" d="m29.3767 22.7985-2.3644.5915c-10.0502 2.9559-13.0061 12.415-7.6859 20.6918 5.9121 7.6856 18.3274 11.8238 28.3777 8.8679l36.6541-12.415S53.0246 17.4783 29.3767 22.7985Z"></path>
  <path fill="url(#b)" d="m29.3767 22.7985-2.3644.5915c-10.0502 2.9559-13.0061 12.415-7.6859 20.6918 5.9121 7.6856 18.3274 11.8238 28.3777 8.8679l36.6541-12.415S53.0246 17.4783 29.3767 22.7985Z" opacity=".3"></path>
  <path fill="url(#c)" d="M77.8553 49.4022c-6.7706-8.4585-17.9951-11.9659-28.3774-8.8676L12.8242 52.3584 1 73.0502l66.2138 11.233 11.8238-21.2833c2.3651-4.1386 1.7739-8.8676-1.1823-13.5977Z"></path>
  <path fill="url(#d)" d="M66.0311 70.0936c-6.7706-8.4585-17.9944-11.9659-28.377-8.8676L1 73.0498s31.3332 23.6476 55.5724 17.7363l1.7735-.5919c10.0503-2.9555 13.5973-12.4146 7.6852-20.1006Z"></path>
  <defs>
    <linearGradient id="a" x1="14.893" x2="88.497" y1="3.88" y2="39.648" gradientUnits="userSpaceOnUse">
      <stop offset=".1" stop-color="#76b3e1"></stop>
      <stop offset=".3" stop-color="#dcf2fd"></stop>
      <stop offset="1" stop-color="#76b3e1"></stop>
    </linearGradient>
    <linearGradient id="b" x1="55.271" x2="42.383" y1="21.38" y2="64.301" gradientUnits="userSpaceOnUse">
      <stop stop-color="#76b3e1"></stop>
      <stop offset=".5" stop-color="#4377bb"></stop>
      <stop offset="1" stop-color="#1f3b77"></stop>
    </linearGradient>
    <linearGradient id="c" x1="9.513" x2="83.944" y1="40.062" y2="90.668" gradientUnits="userSpaceOnUse">
      <stop stop-color="#315aa9"></stop>
      <stop offset=".5" stop-color="#518ac8"></stop>
      <stop offset="1" stop-color="#315aa9"></stop>
    </linearGradient>
    <linearGradient id="d" x1="43.093" x2="13.06" y1="46.151" y2="156.29" gradientUnits="userSpaceOnUse">
      <stop stop-color="#4377bb"></stop>
      <stop offset=".5" stop-color="#1a336b"></stop>
      <stop offset="1" stop-color="#1a336b"></stop>
    </linearGradient>
  </defs>
</svg>